# File created by Blade
# Date/Time:  Tue Apr 07 20:18:06 2015
#---------------------------------------------------------
:version 1.10
:name HOM
:units
  mass 1.0
  length 1.000000
  angle deg
:documentation
     Acclaim Skeleton File
:root
   axis xyz
   order TX TY TZ RX RY RZ
   position 0.000000 0.000000 0.000000
   orientation 0 0 0
:bonedata
   begin
      id 1
      name Spine_dum
      direction 0.000000 1.000000 0.000000
      length 4.885285
      axis 0.0 0.0 0.0 xyz
   end
   begin
      id 2
      name LeftUpLeg_dum
      direction 1.000000 0.000000 0.000000
      length 2.672193
      axis 0.0 0.0 0.0 xyz
   end
   begin
      id 3
      name RightUpLeg_dum
      direction -1.000000 0.000000 0.000000
      length 2.672193
      axis 0.0 0.0 0.0 xyz
   end
   begin
      id 4
      name Spine
      direction 0.000000 1.000000 0.000000
      length 0.000000
      axis 0.0 0.0 0.0 xyz
      dof rx ry rz
   end
   begin
      id 5
      name Spine_dum1
      direction 0.000000 1.000000 0.000000
      length 16.494159
      axis 0.0 0.0 0.0 xyz
   end
   begin
      id 6
      name Spine_dum2
      direction 0.000000 1.000000 0.000000
      length 10.663448
      axis 0.0 0.0 0.0 xyz
   end
   begin
      id 7
      name Spine_dum3
      direction 0.000000 1.000000 0.000000
      length 10.663448
      axis 0.0 0.0 0.0 xyz
   end
   begin
      id 8
      name Head
      direction 0.000000 1.000000 0.000000
      length 4.527550
      axis 0.0 0.0 0.0 xyz
      dof rx ry rz
   end
   begin
      id 9
      name LeftShoulder
      direction 1.000000 0.000000 0.000000
      length 7.531907
      axis 0.0 0.0 -90.0 xyz
      dof rx ry rz
   end
   begin
      id 10
      name LeftArm
      direction 1.000000 0.000000 0.000000
      length 10.229199
      axis 0.0 0.0 -90.0 xyz
      dof rx ry rz
   end
   begin
      id 11
      name LeftForeArm
      direction 1.000000 0.000000 0.000000
      length 8.673495
      axis 0.0 0.0 -90.0 xyz
      dof ry rz rx
   end
   begin
      id 12
      name LeftHand
      direction 0.000000 0.000000 0.000000
      length 0.000000
      axis 0.0 0.0 -90.0 xyz
      dof rx ry rz
   end
   begin
      id 13
      name LeftHand_dum1
      direction 0.000000 0.000000 0.000000
      length 0.000000
      axis 0.0 0.0 -90.0 xyz
   end
   begin
      id 14
      name LeftHand_dum2
      direction 1.000000 0.000000 0.000000
      length 3.937000
      axis 0.0 0.0 -90.0 xyz
   end
   begin
      id 15
      name LeftHandThumb1
      direction 0.000000 0.000000 1.000000
      length 3.937000
      axis 0.0 0.0 -90.0 xyz
      dof rx rz ry
   end
   begin
      id 16
      name RightShoulder
      direction -1.000000 0.000000 0.000000
      length 7.531907
      axis 0.0 0.0 90.0 xyz
      dof rx ry rz
   end
   begin
      id 17
      name RightArm
      direction -1.000000 0.000000 0.000000
      length 10.229199
      axis 0.0 0.0 90.0 xyz
      dof rx ry rz
   end
   begin
      id 18
      name RightForeArm
      direction -1.000000 0.000000 0.000000
      length 8.673495
      axis 0.0 0.0 90.0 xyz
      dof ry rz rx
   end
   begin
      id 19
      name RightHand
      direction 0.000000 0.000000 0.000000
      length 0.000000
      axis 0.0 0.0 90.0 xyz
      dof rx ry rz
   end
   begin
      id 20
      name RightHand_dum1
      direction 0.000000 0.000000 0.000000
      length 0.000000
      axis 0.0 0.0 90.0 xyz
   end
   begin
      id 21
      name RightHand_dum2
      direction -1.000000 0.000000 0.000000
      length 3.937000
      axis 0.0 0.0 90.0 xyz
   end
   begin
      id 22
      name RightHandThumb1
      direction 0.000000 0.000000 1.000000
      length 3.937000
      axis 0.0 0.0 90.0 xyz
      dof rx rz ry
   end
   begin
      id 23
      name LeftUpLeg
      direction 0.000000 -1.000000 0.000000
      length 16.263388
      axis 0.0 0.0 0.0 xyz
      dof rx ry rz
   end
   begin
      id 24
      name LeftLeg
      direction 0.000000 -1.000000 0.000000
      length 14.328163
      axis 0.0 0.0 0.0 xyz
      dof rx ry rz
   end
   begin
      id 25
      name LeftFoot
      direction 0.000000 -0.258819 0.965926
      length 5.031290
      axis 15.0 0.0 0.0 xyz
      dof rx ry rz
   end
   begin
      id 26
      name LeftToeBase
      direction 0.000000 0.000000 1.000000
      length 2.952750
      axis 0.0 0.0 0.0 xyz
      dof rx ry rz
   end
   begin
      id 27
      name RightUpLeg
      direction 0.000000 -1.000000 0.000000
      length 16.263388
      axis 0.0 0.0 0.0 xyz
      dof rx ry rz
   end
   begin
      id 28
      name RightLeg
      direction 0.000000 -1.000000 0.000000
      length 14.328163
      axis 0.0 0.0 0.0 xyz
      dof rx ry rz
   end
   begin
      id 29
      name RightFoot
      direction 0.000000 -0.258819 0.965926
      length 5.031290
      axis 15.0 0.0 0.0 xyz
      dof rx ry rz
   end
   begin
      id 30
      name RightToeBase
      direction 0.000000 0.000000 1.000000
      length 2.952750
      axis 0.0 0.0 0.0 xyz
      dof rx ry rz
   end
:hierarchy
   begin
      root Spine_dum LeftUpLeg_dum RightUpLeg_dum
      Spine_dum Spine
      LeftUpLeg_dum LeftUpLeg
      RightUpLeg_dum RightUpLeg
      Spine Spine_dum1 Spine_dum2 Spine_dum3
      Spine_dum1 Head
      Spine_dum2 LeftShoulder
      Spine_dum3 RightShoulder
      LeftShoulder LeftArm
      LeftArm LeftForeArm
      LeftForeArm LeftHand
      LeftHand LeftHand_dum1 LeftHand_dum2
      LeftHand_dum1 LeftHandThumb1
      RightShoulder RightArm
      RightArm RightForeArm
      RightForeArm RightHand
      RightHand RightHand_dum1 RightHand_dum2
      RightHand_dum1 RightHandThumb1
      LeftUpLeg LeftLeg
      LeftLeg LeftFoot
      LeftFoot LeftToeBase
      RightUpLeg RightLeg
      RightLeg RightFoot
      RightFoot RightToeBase
   end

# File created by Blade
# Date/Time:  Tue Apr 07 20:17:56 2015
# Frame Rate: 120.000 fps
#------------------------------------------------------
:FULLY-SPECIFIED
:DEGREES
60
root 2.364952 32.753073 -7.044294 11.205535 2.995165 -0.572966
Spine -14.387375 -6.375777 -1.039136
Head 14.634701 -1.095829 0.273271
LeftShoulder -20.894036 41.018424 20.373126
LeftArm 56.365800 -56.295221 -59.027673
LeftForeArm 2.998689 -0.000000 -2.104075
LeftHand 6.199741 -0.000000 2.983057
LeftHandThumb1 -26.253704 0.000000 33.147579
RightShoulder -7.928763 3.879459 -30.864043
RightArm 12.414621 16.384354 39.467073
RightForeArm -8.855619 0.000000 0.463104
RightHand 3.563568 -0.000000 4.160969
RightHandThumb1 -24.326973 -0.000000 -32.862282
LeftUpLeg -4.466957 -2.104266 0.836364
LeftLeg -3.206085 -0.000000 0.000000
LeftFoot -6.310893 6.825268 -16.767341
LeftToeBase -4.504889 -0.000000 0.000000
RightUpLeg -5.457740 -2.874189 1.499678
RightLeg -2.355111 -0.000000 0.000000
RightFoot -7.645850 -7.340193 5.081793
RightToeBase 2.516429 -0.000000 -0.000000
61
root 2.362131 32.753346 -7.042391 11.199839 2.967607 -0.565960
Spine -14.388954 -6.356381 -1.056106
Head 14.684675 -1.089685 0.257966
LeftShoulder -20.883711 41.023580 20.376258
LeftArm 56.354383 -56.325075 -59.036046
LeftForeArm 2.977012 -0.000000 -2.094937
LeftHand 6.170448 -0.000000 2.984325
LeftHandThumb1 -26.253704 0.000000 33.147579
RightShoulder -7.936933 3.862502 -30.866020
RightArm 12.425991 16.393882 39.482638
RightForeArm -8.815230 -0.000000 0.479246
RightHand 3.542499 -0.000000 4.166023
RightHandThumb1 -24.326973 -0.000000 -32.862282
LeftUpLeg -4.464459 -2.115249 0.831448
LeftLeg -3.187495 -0.000000 0.000000
LeftFoot -6.323184 6.852925 -16.769096
LeftToeBase -4.554225 -0.000000 0.000000
RightUpLeg -5.447284 -2.873660 1.494680
RightLeg -2.361050 -0.000000 0.000000
RightFoot -7.641031 -7.316589 5.085091
RightToeBase 2.521095 -0.000000 -0.000000
62
root 2.359801 32.753126 -7.040728 11.191455 2.940504 -0.556464
Spine -14.385646 -6.340885 -1.075852
Head 14.741774 -1.086252 0.238973
LeftShoulder -20.888160 41.011913 20.385439
LeftArm 56.381641 -56.358766 -59.097861
LeftForeArm 2.936528 -0.000000 -2.077123
LeftHand 6.132974 0.000000 2.971112
LeftHandThumb1 -26.253704 0.000000 33.147579
RightShoulder -7.943108 3.855247 -30.870020
RightArm 12.431028 16.383284 39.493663
RightForeArm -8.770790 -0.000000 0.500525
RightHand 3.519245 -0.000000 4.177475
RightHandThumb1 -24.326973 -0.000000 -32.862282
LeftUpLeg -4.454601 -2.131699 0.823683
LeftLeg -3.179536 -0.000000 0.000000
LeftFoot -6.340497 6.897652 -16.761909
LeftToeBase -4.481133 -0.000000 0.000000
RightUpLeg -5.427581 -2.857848 1.484954
RightLeg -2.380843 -0.000000 0.000000
RightFoot -7.639077 -7.312544 5.086766
RightToeBase 2.508017 -0.000000 -0.000000
63
root 2.358341 32.752954 -7.037753 11.190456 2.916016 -0.552765
Spine -14.405587 -6.340406 -1.066033
Head 14.824406 -1.192540 0.218349
LeftShoulder -20.886839 41.020038 20.362343
LeftArm 56.333539 -56.399756 -59.078346
LeftForeArm 2.874837 -0.000000 -2.058238
LeftHand 6.076438 0.000000 2.957630
LeftHandThumb1 -26.253704 0.000000 33.147579
RightShoulder -7.927535 3.846714 -30.900599
RightArm 12.440908 16.379903 39.519169
RightForeArm -8.726930 -0.000000 0.508877
RightHand 3.517459 -0.000000 4.146039
RightHandThumb1 -24.326973 -0.000000 -32.862282
LeftUpLeg -4.444436 -2.153682 0.820841
LeftLeg -3.184807 -0.000000 0.000000
LeftFoot -6.350453 6.946723 -16.738554
LeftToeBase -4.502962 -0.000000 0.000000
RightUpLeg -5.417570 -2.867497 1.480685
RightLeg -2.391810 -0.000000 0.000000
RightFoot -7.625118 -7.273380 5.093213
RightToeBase 2.491888 -0.000000 -0.000000
64
root 2.355975 32.753095 -7.036236 11.191883 2.900316 -0.548459
Spine -14.415286 -6.331915 -1.072651
Head 14.894543 -1.201983 0.187007
LeftShoulder -20.889465 41.020345 20.360951
LeftArm 56.400215 -56.458359 -59.187875
LeftForeArm 2.883908 -0.000000 -2.037398
LeftHand 6.096150 0.000000 2.947853
LeftHandThumb1 -26.253704 0.000000 33.147579
RightShoulder -7.926182 3.861713 -30.904867
RightArm 12.417339 16.369108 39.511555
RightForeArm -8.724766 -0.000000 0.538511
RightHand 3.433563 -0.000000 4.130377
RightHandThumb1 -24.326973 -0.000000 -32.862282
LeftUpLeg -4.451478 -2.142278 0.816911
LeftLeg -3.164978 -0.000000 0.000000
LeftFoot -6.357306 6.950356 -16.737095
LeftToeBase -4.523565 -0.000000 0.000000
RightUpLeg -5.408669 -2.888293 1.482261
RightLeg -2.409086 -0.000000 0.000000
RightFoot -7.619189 -7.240950 5.091357
RightToeBase 2.501972 -0.000000 -0.000000
65
root 2.354002 32.753392 -7.034084 11.196449 2.873987 -0.537490
Spine -14.432402 -6.324545 -1.087190
Head 14.969002 -1.186161 0.164801
LeftShoulder -20.892036 41.008876 20.365796
LeftArm 56.474017 -56.529469 -59.313320
LeftForeArm 2.942641 -0.000000 -2.031847
LeftHand 6.067604 0.000000 2.982664
LeftHandThumb1 -26.253704 0.000000 33.147579
RightShoulder -7.928046 3.871228 -30.912681
RightArm 12.415472 16.362310 39.521680
RightForeArm -8.704897 0.000000 0.564509
RightHand 3.427732 -0.000000 4.151252
RightHandThumb1 -24.326973 -0.000000 -32.862282
LeftUpLeg -4.448257 -2.138173 0.804819
LeftLeg -3.167136 -0.000000 0.000000
LeftFoot -6.353646 6.975602 -16.748528
LeftToeBase -4.551895 -0.000000 0.000000
RightUpLeg -5.402893 -2.884495 1.470083
RightLeg -2.424397 -0.000000 0.000000
RightFoot -7.623203 -7.212200 5.114006
RightToeBase 2.524136 -0.000000 -0.000000
66
root 2.352465 32.753688 -7.032271 11.209924 2.853097 -0.523762
Spine -14.457737 -6.330693 -1.098226
Head 15.040901 -1.143740 0.137996
LeftShoulder -20.929336 41.026077 20.338484
LeftArm 56.402480 -56.520811 -59.250738
LeftForeArm 2.863915 -0.000000 -1.998304
LeftHand 6.064531 0.000000 2.992580
LeftHandThumb1 -26.253704 0.000000 33.147579
RightShoulder -7.923599 3.868781 -30.921899
RightArm 12.424413 16.350951 39.530773
RightForeArm -8.704042 0.000000 0.582952
RightHand 3.493668 -0.000000 4.096001
RightHandThumb1 -24.326973 -0.000000 -32.862282
LeftUpLeg -4.454912 -2.138723 0.790940
LeftLeg -3.172675 -0.000000 0.000000
LeftFoot -6.349633 7.004410 -16.748411
LeftToeBase -4.567583 -0.000000 0.000000
RightUpLeg -5.406723 -2.886711 1.460226
RightLeg -2.436238 -0.000000 0.000000
RightFoot -7.624464 -7.197201 5.113403
RightToeBase 2.520746 -0.000000 -0.000000
67
root 2.350839 32.754174 -7.030358 11.217993 2.825365 -0.516963
Spine -14.478546 -6.322246 -1.102082
Head 15.119930 -1.124261 0.102135
LeftShoulder -20.951147 41.019885 20.318716
LeftArm 56.329250 -56.517621 -59.191220
LeftForeArm 2.784407 -0.000000 -1.967261
LeftHand 6.015551 -0.000000 2.995042
LeftHandThumb1 -26.253704 0.000000 33.147579
RightShoulder -7.922863 3.871508 -30.921921
RightArm 12.434232 16.338652 39.518580
RightForeArm -8.706028 0.000000 0.598029
RightHand 3.515732 -0.000000 4.078272
RightHandThumb1 -24.326973 -0.000000 -32.862282
LeftUpLeg -4.454171 -2.117655 0.781580
LeftLeg -3.174528 -0.000000 0.000000
LeftFoot -6.348012 7.014799 -16.729190
LeftToeBase -4.528680 -0.000000 0.000000
RightUpLeg -5.406332 -2.887539 1.454643
RightLeg -2.451335 -0.000000 0.000000
RightFoot -7.617503 -7.170948 5.101903
RightToeBase 2.543147 -0.000000 -0.000000
68
root 2.348568 32.754421 -7.027540 11.228544 2.799338 -0.515120
Spine -14.504285 -6.311888 -1.103381
Head 15.198127 -1.096088 0.073306
LeftShoulder -20.980108 41.037293 20.295701
LeftArm 56.337432 -56.537810 -59.210630
LeftForeArm 2.828492 0.000000 -1.953961
LeftHand 5.978666 -0.000000 2.982021
LeftHandThumb1 -26.253704 0.000000 33.147579
RightShoulder -7.920387 3.851910 -30.912826
RightArm 12.441489 16.328844 39.494403
RightForeArm -8.716580 -0.000000 0.612841
RightHand 3.539353 -0.000000 4.030236
RightHandThumb1 -24.326973 -0.000000 -32.862282
LeftUpLeg -4.455673 -2.089866 0.778907
LeftLeg -3.178383 -0.000000 0.000000
LeftFoot -6.352664 7.006867 -16.736620
LeftToeBase -4.509649 -0.000000 0.000000
RightUpLeg -5.409060 -2.897886 1.457528
RightLeg -2.460656 -0.000000 0.000000
RightFoot -7.606423 -7.144127 5.099551
RightToeBase 2.547568 -0.000000 -0.000000
69
root 2.347084 32.754553 -7.026593 11.254233 2.775633 -0.502680
Spine -14.540056 -6.296321 -1.114270
Head 15.265759 -1.078359 0.043759
LeftShoulder -21.004743 41.032546 20.292279
LeftArm 56.065232 -56.418229 -58.929823
LeftForeArm 2.618430 -0.000000 -1.905250
LeftHand 5.970032 -0.000000 2.977051
LeftHandThumb1 -26.253704 0.000000 33.147579
RightShoulder -7.938760 3.857199 -30.919499
RightArm 12.446028 16.322017 39.489916
RightForeArm -8.729619 -0.000000 0.632437
RightHand 3.508110 -0.000000 3.997030
RightHandThumb1 -24.326973 -0.000000 -32.862282
LeftUpLeg -4.476024 -2.086453 0.766449
LeftLeg -3.179696 -0.000000 0.000000
LeftFoot -6.350570 7.036955 -16.710868
LeftToeBase -4.527364 -0.000000 0.000000
RightUpLeg -5.433201 -2.882483 1.446738
RightLeg -2.461293 -0.000000 0.000000
RightFoot -7.615839 -7.147145 5.092097
RightToeBase 2.560423 -0.000000 -0.000000
70
root 2.345238 32.754642 -7.024874 11.268763 2.750809 -0.499226
Spine -14.564760 -6.281852 -1.119448
Head 15.341516 -1.048946 0.027949
LeftShoulder -21.003352 41.017708 20.308773
LeftArm 56.148688 -56.497700 -59.091264
LeftForeArm 2.797550 -0.000000 -1.908674
LeftHand 6.059592 -0.000000 2.909421
LeftHandThumb1 -26.253704 0.000000 33.147579
RightShoulder -7.955024 3.858650 -30.930358
RightArm 12.446566 16.321600 39.496302
RightForeArm -8.718093 0.000000 0.659657
RightHand 3.577466 -0.000000 4.029526
RightHandThumb1 -24.326973 -0.000000 -32.862282
LeftUpLeg -4.488575 -2.050801 0.758294
LeftLeg -3.171833 -0.000000 0.000000
LeftFoot -6.350549 7.032381 -16.735288
LeftToeBase -4.556189 -0.000000 0.000000
RightUpLeg -5.438655 -2.876936 1.445070
RightLeg -2.476889 -0.000000 0.000000
RightFoot -7.611819 -7.125366 5.119533
RightToeBase 2.542683 -0.000000 -0.000000
